<svg viewBox="0 0 211.191 132.027" xml:space="preserve" xmlns="http://www.w3.org/2000/svg"><path d="M70.277 51.906c4.2-2.984 6.329-7.746 6.329-14.156 0-3.484-.686-6.465-2.07-8.914-1.427-2.434-3.343-4.328-5.612-5.59-2.192-1.285-4.59-2.137-7.254-2.586-2.346-.445-4.877-.66-7.738-.66H24v36h32c5.656 0 10.46-1.379 14.277-4.094zM32 28h21.932c2.357 0 4.4.172 6.328.535 1.765.297 3.275.824 4.695 1.657 1.1.609 1.975 1.492 2.647 2.636.666 1.176 1.004 2.832 1.004 4.922 0 5.531-2.23 7.113-2.962 7.633l-.003.004C63.17 47.144 60.018 48 56 48H32V28z" fill="#ffffff" class="fill-000000"></path><path d="M92.291 59.836c2.803-2.129 5.14-4.555 6.992-7.266 3.254-4.824 4.905-10.836 4.905-17.867 0-6.398-1.084-11.879-3.223-16.3-2.213-4.551-5.375-8.255-9.414-11.02-3.943-2.676-8.604-4.598-13.856-5.719C72.575.543 67.031 0 60.746 0H0v132.027h62.383c5.857 0 11.633-.746 17.158-2.219 5.734-1.519 10.89-3.882 15.336-7.034 4.623-3.301 8.316-7.555 10.97-12.633 2.692-5.11 4.057-11.207 4.057-18.117 0-8.563-2.111-16.02-6.277-22.16-2.83-4.172-6.627-7.528-11.336-10.028zm6.473 46.59c-2.072 3.96-4.944 7.273-8.526 9.828-3.652 2.59-7.94 4.547-12.75 5.824a58.758 58.758 0 0 1-15.105 1.95H8V8h52.746c5.71 0 10.697.484 15.254 1.48l.022.008c4.238.903 7.953 2.422 11.023 4.504 2.904 1.988 5.103 4.574 6.723 7.902 1.605 3.32 2.42 7.63 2.42 12.81 0 5.41-1.19 9.913-3.524 13.374-2.438 3.566-6.14 6.55-11.008 8.871l-9.494 4.524 10.102 2.925c6.693 1.942 11.515 5.2 14.742 9.958 3.297 4.859 4.898 10.636 4.898 17.668 0 5.597-1.054 10.44-3.14 14.402z" fill="#ffffff" class="fill-000000"></path><path d="M56.537 68H24v44h32c3.062 0 5.928-.312 8.522-.922 3.029-.703 5.668-1.855 7.775-3.39 2.418-1.68 4.344-3.942 5.713-6.7 1.38-2.75 2.052-6.11 2.052-10.273 0-7.918-2.292-13.813-6.847-17.547C68.942 69.738 63.33 68 56.537 68zm14.317 29.414c-.774 1.555-1.825 2.805-3.194 3.754-1.318.96-2.935 1.652-4.943 2.113l-.024.008c-1.992.473-4.244.711-6.693.711H32V76h24.537c4.926 0 8.854 1.148 11.639 3.383 2.578 2.113 3.886 5.925 3.886 11.332 0 2.847-.404 5.093-1.208 6.699zM186.473 71.953c-.63-6.941-2.854-12.676-6.62-17.055-3.671-4.246-9.675-6.586-16.908-6.586-4.576 0-8.5.872-11.673 2.59-3.006 1.64-5.512 3.723-7.487 6.235-1.869 2.445-3.205 5.129-3.965 7.949-.71 2.574-1.13 4.926-1.252 6.996l-.244 4.23h48.543l-.394-4.359zm-39.227-3.64c.09-.364.186-.739.293-1.121.5-1.864 1.352-3.563 2.569-5.153 1.267-1.61 2.947-2.996 4.986-4.11 1.98-1.073 4.62-1.617 7.851-1.617 4.873 0 8.729 1.356 10.85 3.813 1.871 2.172 3.209 4.918 4.004 8.187h-30.553z" fill="#ffffff" class="fill-000000"></path><path d="M180.053 97.625c-.561 1.813-2.285 3.742-4.979 5.578-2.9 1.969-6.455 2.965-10.566 2.965-5.805 0-10.219-1.398-13.121-4.156l-.002-.004c-2.235-2.117-3.865-5.813-4.514-9.98h63.906l.252-3.731c.489-7.16-.13-14.11-1.834-20.653-1.753-6.718-4.625-12.746-8.527-17.902-4.012-5.324-9.168-9.598-15.314-12.691-6.19-3.145-13.483-4.739-21.674-4.739-7.307 0-14.096 1.297-20.186 3.86-6.03 2.547-11.334 6.102-15.766 10.57-4.347 4.38-7.79 9.738-10.242 15.938-2.37 6.086-3.572 12.699-3.572 19.656 0 7.191 1.168 13.91 3.475 19.976 2.326 6.079 5.664 11.403 9.959 15.872 4.431 4.492 9.607 7.855 15.844 10.285 6.152 2.359 13.046 3.558 20.488 3.558 10.878 0 20.308-2.488 28-7.383 7.908-4.949 13.834-13.218 17.61-24.578l1.75-5.261h-30.116l-.871 2.82zm6.41 5.18h13.211c-3.057 6.883-7.094 11.84-12.262 15.074-6.414 4.078-14.398 6.148-23.732 6.148-6.46 0-12.387-1.019-17.602-3.019-5.146-2.008-9.41-4.77-12.998-8.406-3.562-3.704-6.25-8.008-8.217-13.141-1.957-5.149-2.949-10.91-2.949-17.125 0-5.961 1.018-11.598 3.02-16.734 2.07-5.239 4.843-9.567 8.474-13.227 3.694-3.723 8.135-6.695 13.194-8.832 5.097-2.145 10.843-3.23 17.078-3.23 6.922 0 12.994 1.3 18.064 3.879 5.053 2.542 9.27 6.027 12.54 10.37 3.27 4.325 5.683 9.407 7.17 15.102 1.19 4.57 1.772 9.387 1.736 14.363h-64.628v4c0 7.918 2.803 15.5 7.313 19.781 4.437 4.22 10.707 6.36 18.633 6.36 5.74 0 10.806-1.46 15.062-4.348 3.137-2.136 5.446-4.488 6.893-7.015zM192 8h-60v20h60V8zm-8 12h-44v-4h44v4z" fill="#ffffff" class="fill-000000"></path></svg>