<svg fill="none" viewBox="0 0 19 19" xmlns="http://www.w3.org/2000/svg"><path d="M13.92 16.338c-.079-.463-.489-2.72-1.496-5.489 2.48-.397 4.63.284 4.79.336a7.687 7.687 0 0 1-3.294 5.153Zm-4.295 1.313a7.655 7.655 0 0 1-4.897-1.762c.102.082.173.134.173.134s1.473-3.213 6.031-4.8c.016-.008.034-.01.051-.017 1.082 2.81 1.528 5.163 1.643 5.835-.95.403-1.97.61-3 .61h-.001ZM1.939 9.964c0-.082.004-.162.006-.243.136.003 3.934.09 7.89-1.095.22.43.43.87.624 1.307a4.994 4.994 0 0 0-.303.092c-4.147 1.34-6.251 5.071-6.251 5.071l.003.004a7.656 7.656 0 0 1-1.97-5.136Zm4.406-6.95A45.84 45.84 0 0 1 9.2 7.442c-3.69.98-6.894.942-7.096.938a7.688 7.688 0 0 1 4.24-5.366Zm1.439-.513-.001.003-.024.004.025-.006ZM14.7 4.197c-.02.03-1.114 1.695-4.016 2.782a39.033 39.033 0 0 0-2.87-4.484 7.654 7.654 0 0 1 6.888 1.702H14.7Zm2.607 5.69c-.11-.024-2.711-.584-5.352-.252l-.166-.395c-.16-.376-.331-.748-.511-1.116 3.034-1.24 4.267-3.02 4.281-3.04a7.656 7.656 0 0 1 1.748 4.803Zm1.134-1.734a8.993 8.993 0 0 0-3.786-5.65 8.969 8.969 0 0 0-1.527-.83 9.017 9.017 0 0 0-7.008 0 9.023 9.023 0 0 0-3.958 3.26A8.954 8.954 0 0 0 .625 9.963a8.91 8.91 0 0 0 .708 3.503 9.018 9.018 0 0 0 4.788 4.789c.544.231 1.11.407 1.69.524a8.967 8.967 0 0 0 6.845-1.354 8.986 8.986 0 0 0 3.785-9.273h.002Z" fill="#ffffff" class="fill-000000"></path></svg>