<svg data-name="Design Convert" viewBox="0 0 64 64" xmlns="http://www.w3.org/2000/svg"><path d="M52 51H12a5 5 0 0 1-5-5V18a5 5 0 0 1 5-5h40a5 5 0 0 1 5 5v28a5 5 0 0 1-5 5ZM12 15a3 3 0 0 0-3 3v28a3 3 0 0 0 3 3h40a3 3 0 0 0 3-3V18a3 3 0 0 0-3-3Z" fill="#ffffff" class="fill-010101"></path><path d="M32 36.72a4.34 4.34 0 0 1-3-1.21L9.31 16.72a1 1 0 0 1 1.38-1.44l19.69 18.79a2.34 2.34 0 0 0 3.24 0l19.69-18.79a1 1 0 0 1 1.38 1.44L35 35.51a4.34 4.34 0 0 1-3 1.21Z" fill="#ffffff" class="fill-010101"></path></svg>